<?xml version="1.0" standalone="no"?>
<!DOCTYPE svg PUBLIC "-//W3C//DTD SVG 20010904//EN"
 "http://www.w3.org/TR/2001/REC-SVG-20010904/DTD/svg10.dtd">
<svg version="1.0" xmlns="http://www.w3.org/2000/svg"
 width="527.000000pt" height="527.000000pt" viewBox="0 0 527.000000 527.000000"
 preserveAspectRatio="xMidYMid meet">
<metadata>
Created by potrace 1.11, written by Peter Selinger 2001-2013
</metadata>
<g transform="translate(0.000000,527.000000) scale(0.100000,-0.100000)"
fill="#000000" stroke="none">
<path d="M10 2630 l0 -2630 2630 0 2630 0 0 2630 0 2630 -2630 0 -2630 0 0
-2630z m4880 0 l0 -2260 -2260 0 -2260 0 0 2260 0 2260 2260 0 2260 0 0 -2260z"/>
<path d="M640 2630 l0 -1990 1990 0 1990 0 0 1990 0 1990 -1990 0 -1990 0 0
-1990z m1966 80 c195 -553 368 -1042 384 -1087 l30 -83 -249 0 -249 0 -7 28
c-3 15 -38 132 -77 260 l-71 232 -397 0 -396 0 -79 -260 -79 -260 -248 0 -248
0 11 28 c6 15 175 495 376 1067 201 572 369 1050 374 1063 l9 22 280 -2 281
-3 355 -1005z m1728 509 c3 -3 -2 -98 -11 -211 l-16 -207 -96 6 c-213 12 -372
-61 -448 -204 -17 -32 -36 -85 -42 -117 -7 -37 -11 -227 -11 -503 l0 -443
-225 0 -225 0 0 830 0 830 171 -2 172 -3 32 -135 c33 -138 50 -166 72 -118 21
47 96 130 156 175 119 88 200 113 354 110 61 -1 114 -5 117 -8z"/>
<path d="M1922 3217 c-23 -83 -85 -291 -137 -461 -52 -170 -93 -311 -92 -313
2 -2 130 -2 284 -1 l280 3 -128 413 c-70 227 -133 436 -140 463 -7 27 -15 49
-18 49 -3 0 -25 -69 -49 -153z"/>
</g>
</svg>
